HIERARCHY
ROOT pelvis
{
  OFFSET 0 100 0
  CHANNELS 6 Xposition Yposition Zposition Zrotation Xrotation Yrotation
  JOINT pelvis_right_femur
  {
    OFFSET -10.78128 -3.44521 -0.5502486
    CHANNELS 3 Zrotation Xrotation Yrotation
    JOINT right_femur_tibia
    {
      OFFSET -0.8047443 -44.0398 -0.1307829
      CHANNELS 3 Zrotation Xrotation Yrotation
      JOINT right_tibia_foot
      {
        OFFSET 3.006224 -47.83518 -5
        CHANNELS 3 Zrotation Xrotation Yrotation
        End Site
        {
          OFFSET 0 -5 15
        }
      }
    }
  }
  JOINT pelvis_left_femur
  {
    OFFSET 10.78128 -3.44521 -0.5502486
    CHANNELS 3 Zrotation Xrotation Yrotation
    JOINT left_femur_tibia
    {
      OFFSET 0.8047443 -44.0398 -0.1307829
      CHANNELS 3 Zrotation Xrotation Yrotation
      JOINT left_tibia_foot
      {
        OFFSET -4.370144 -48.10324 -4.275266
        CHANNELS 3 Zrotation Xrotation Yrotation
        End Site
        {
          OFFSET 0 -5 15
        }
      }
    }
  }
  JOINT pelvis_spine1
  {
    OFFSET 0 6.468898 -3.129235
    CHANNELS 3 Zrotation Xrotation Yrotation
    JOINT spine1
    {
      OFFSET 0 23.15396 4.99043
      CHANNELS 3 Zrotation Xrotation Yrotation
      JOINT spine2
      {
        OFFSET 0 20.79997 -5.064912
        CHANNELS 3 Zrotation Xrotation Yrotation
        JOINT neck
        {
          OFFSET 0 14.38658 9.616178
          CHANNELS 3 Zrotation Xrotation Yrotation
          End Site
          {
            OFFSET 0 20 0
          }
        }
      }
      JOINT right_manubrium
      {
        OFFSET -5.722621 16.35077 3.967754
        CHANNELS 3 Zrotation Xrotation Yrotation
        JOINT right_clavicle
        {
          OFFSET -13.16364 1.694482 -4.693211
          CHANNELS 3 Zrotation Xrotation Yrotation
          JOINT right_humerus
          {
            OFFSET -28.5034 -0.3100689 -2.792744
            CHANNELS 3 Zrotation Xrotation Yrotation
            JOINT right_radius
            {
              OFFSET -25.15693 0.02248979 -1.271978
              CHANNELS 3 Zrotation Xrotation Yrotation
              End Site
              {
                OFFSET -15 0 0
              }
            }
          }
        }
      }
      JOINT left_manubrium
      {
        OFFSET 5.722621 16.35077 3.967754
        CHANNELS 3 Zrotation Xrotation Yrotation
        JOINT left_clavicle
        {
          OFFSET 13.16364 1.694482 -4.693211
          CHANNELS 3 Zrotation Xrotation Yrotation
          JOINT left_humerus
          {
            OFFSET 29.39168 -1.063119 -2.237045
            CHANNELS 3 Zrotation Xrotation Yrotation
            JOINT left_radius
            {
              OFFSET 24.59957 -0.9528479 0.9047498
              CHANNELS 3 Zrotation Xrotation Yrotation
              End Site
              {
                OFFSET 15 -0 -0
              }
            }
          }
        }
      }
    }
  }
}
MOTION
Frames: 11
Frame Time: 0.0416666666667
0 103.5113 0 -0.0128122 -0.7330165 0.005314159 4.744186 -21.12166 8.983265 -0 37.52426 -0 -6.83023 -13.38321 -3.354492 -6.285184 11.14075 -21.73722 -0 6.768039 -0 9.970095 -16.61301 25.94847 -3.130221 -2.746255 3.912542 2.745645 9.667846 -7.603922 1.658502 22.16903 6.384132 2.575015 -25.07211 9.70608 5.501794 -19.8018 11.50694 86.2479 34.22369 -18.51987 -0 0 15.19359 -7.559612 8.023103 4.855442 5.410945 -19.54939 -1.957048 -92.86307 25.0855 21.10612 0 0 -15.35 10.46472 17.03132 2.437386
0.2535252 103.7443 2.061054 -0.225202 -0.5597559 0.0136859 4.985369 -22.33481 8.569517 -0 36.17191 -0 -6.866694 -12.41976 -3.225036 -6.069489 11.30839 -21.21406 -0 6.859474 -0 9.352302 -17.28628 25.29908 -3.061207 -2.52194 3.723569 2.88305 9.648778 -7.719921 1.617082 22.03243 6.461077 2.657249 -25.16608 9.652781 5.469884 -19.6192 11.56476 86.19661 33.9009 -18.63054 -0 0 14.94998 -8.033466 8.186254 5.086985 5.577283 -19.78084 -1.953244 -92.72089 24.84542 20.82768 0 0 -15.48574 10.33883 17.0809 2.418955
0.5249271 103.7852 4.476391 -0.5945513 0.8063638 0.06323986 5.819221 -26.39135 7.936602 -0 30.38352 -0 -6.47406 -10.95062 -2.596455 -5.928396 11.75049 -20.32903 -0 6.700464 -0 8.958482 -18.99579 24.41042 -3.075438 -2.124637 3.695734 3.362998 9.490512 -8.033091 1.54886 21.35665 6.771691 2.934324 -25.96791 9.812218 5.554037 -19.25577 11.63751 86.01051 34.26507 -19.18776 -0 0 14.46879 -8.261027 8.531177 5.259401 6.294113 -20.38542 -1.51767 -92.13308 23.80695 19.88425 0 0 -16.91871 11.22402 16.2889 1.152778
0.7997512 103.6447 7.300758 -0.9113139 2.019258 0.2095011 6.519989 -29.8622 7.268542 -0 25.37965 -0 -6.347266 -9.264495 -2.017337 -5.803499 12.39153 -19.38054 -0 6.99326 -0 8.125179 -20.55299 23.19338 -3.027599 -1.775776 3.611444 3.706249 9.300159 -8.282851 1.461014 20.76368 7.108633 3.236238 -26.61429 9.927691 5.557042 -18.79638 11.65439 86.10133 34.54906 -19.89176 -0 0 13.76057 -8.432536 8.828436 5.34434 6.919801 -21.0006 -1.163683 -91.50258 23.12289 18.91297 0 0 -18.58203 11.76469 15.51541 0.3171155
1.065346 103.3782 10.63393 -1.224819 3.125045 0.4989528 7.141242 -32.85124 6.495493 -0 20.84473 -0 -6.496275 -7.326143 -1.460262 -5.664628 13.24304 -18.26755 -0 7.942472 -0 6.747564 -21.89057 21.50202 -2.865363 -1.468143 3.454668 3.934029 9.069713 -8.485852 1.345741 20.23813 7.471651 3.554239 -27.12913 9.991886 5.451271 -18.21273 11.61564 86.49717 34.70015 -20.78306 -0 0 12.76191 -8.591136 9.092664 5.364535 7.469299 -21.64841 -0.8913068 -90.77673 22.68309 17.82915 0 0 -20.50305 12.05035 14.72409 -0.208404
1.310814 103.0632 14.54937 -1.555392 4.022413 0.9513527 7.695602 -34.93092 5.720634 -0 17.20283 -0 -6.926092 -5.395616 -0.9981351 -5.489005 14.18651 -17.06279 -0 9.840395 -0 4.837266 -22.66405 19.39367 -2.536806 -1.255006 3.228539 4.036721 8.816033 -8.634383 1.208143 19.83207 7.80674 3.834814 -27.47049 9.98128 5.239453 -17.55203 11.52427 87.16779 34.68139 -21.7869 -0 0 11.56796 -8.713825 9.307903 5.32132 7.849846 -22.22497 -0.732802 -90.06459 22.50774 16.78676 0 0 -22.38411 12.01787 13.98536 -0.3398278
1.530248 102.8048 19.09183 -1.932935 4.582846 1.547237 8.203617 -35.70211 5.016094 -0 14.80958 -0 -7.62459 -3.718938 -0.6882107 -5.229734 15.00654 -15.8027 -0 13.055 -0 2.477335 -22.48747 16.96584 -1.984748 -1.162383 2.938543 4.016793 8.579442 -8.725869 1.049227 19.60009 8.057939 4.019647 -27.60426 9.867541 4.918195 -16.87637 11.40159 88.0497 34.41967 -22.78541 -0 0 10.28023 -8.855554 9.470695 5.267644 7.964099 -22.63852 -0.7377942 -89.45961 22.54223 15.93305 0 0 -23.87801 11.65767 13.35776 -0.05474302
1.725909 102.734 24.25 -2.365354 4.680967 2.211695 8.675457 -34.84389 4.455823 -0 13.87923 -0 -8.529771 -2.599611 -0.5750137 -4.843439 15.35773 -14.55359 -0 17.93829 -0 -0.07389795 -21.02317 14.47076 -1.193776 -1.184797 2.625587 3.897218 8.419604 -8.75883 0.8768725 19.58584 8.16982 4.057824 -27.52124 9.634843 4.510024 -16.27585 11.2872 89.00645 33.8967 -23.60581 -0 0 9.05412 -9.087844 9.588708 5.280941 7.726569 -22.80112 -0.9417831 -89.06575 22.69466 15.44552 0 0 -24.61342 11.00147 12.88202 0.6291789
1.907811 102.9909 29.93383 -2.807485 4.230692 2.81304 9.059917 -32.25368 4.046279 -0 14.2753 -0 -9.544562 -2.307519 -0.6608635 -4.322748 14.80825 -13.38445 -0 24.69464 -0 -2.424382 -18.18192 12.26504 -0.2368925 -1.263266 2.378 3.715316 8.403198 -8.724982 0.7115156 19.81053 8.105752 3.932626 -27.23494 9.2883 4.061653 -15.84218 11.23038 89.85919 33.17451 -24.06744 -0 0 8.047996 -9.488413 9.681352 5.440519 7.108802 -22.67887 -1.346543 -88.94173 22.86411 15.44811 0 0 -24.36055 10.13328 12.57046 1.636782
2.088058 103.6897 35.96711 -3.140195 3.238592 3.194949 9.231496 -28.13519 3.710126 -0 15.39461 -0 -10.55588 -2.950105 -0.8845659 -3.736639 12.95357 -12.33687 -0 33.15897 -0 -4.177805 -14.31084 10.68747 0.6903707 -1.293118 2.331316 3.506583 8.583596 -8.60279 0.5888834 20.25682 7.863465 3.683835 -26.77584 8.856918 3.637847 -15.64126 11.27185 90.44019 32.40742 -24.05063 -0 0 7.377366 -10.10661 9.778511 5.785138 6.182018 -22.33332 -1.900887 -89.06128 22.98669 15.9408 0 0 -23.19352 9.180508 12.40041 2.833629
2.271015 104.8686 42.11226 -3.194994 1.82852 3.245308 9.051975 -22.93902 3.342274 -0 16.30545 -0 -11.44884 -4.348377 -1.131196 -3.220575 9.572642 -11.39033 -0 42.56469 -0 -5.087661 -10.1905 9.936026 1.308469 -1.176018 2.630328 3.28106 8.984642 -8.36081 0.5488137 20.86049 7.476552 3.400819 -26.17554 8.380681 3.292122 -15.7034 11.42507 90.65006 31.77752 -23.53967 -0 0 7.101541 -10.95373 9.919755 6.290417 5.125186 -21.9224 -2.509938 -89.32393 23.04687 16.79168 0 0 -21.51561 8.293049 12.32026 4.028502
